<svg width="26" height="26" viewBox="0 0 26 26" fill="none" xmlns="http://www.w3.org/2000/svg">
<path d="M26 4.9857C26 4.25322 25.4062 3.65939 24.6737 3.65939H1.32631C0.593835 3.65939 0 4.25322 0 4.9857V21.0143C0 21.7468 0.593835 22.3406 1.32631 22.3406H24.6737C25.4062 22.3406 26 21.7468 26 21.0143V4.9857ZM23.3474 7.68696C23.3474 8.07734 23.1761 8.448 22.8789 8.70106L17.7929 13.0316L22.8838 17.3662C23.178 17.6166 23.3474 17.9836 23.3474 18.3699C23.3474 19.0979 22.7572 19.6881 22.0292 19.6881H22.0179C21.6958 19.6881 21.3841 19.5734 21.1388 19.3645L15.747 14.7736L13.8598 16.3803C13.612 16.5913 13.3059 16.6968 12.9999 16.6968C12.6939 16.6968 12.3879 16.5913 12.14 16.3803L10.2528 14.7736L4.86978 19.3571C4.61893 19.5707 4.30018 19.688 3.97072 19.688C3.24275 19.688 2.65254 19.0979 2.65254 18.3698C2.65254 17.9835 2.82204 17.6166 3.11613 17.3661L8.20705 13.0315L3.19147 8.76092C2.84963 8.46984 2.65263 8.04339 2.65263 7.59439C2.65263 6.88613 3.22675 6.31193 3.93509 6.31193C4.23978 6.31193 4.53449 6.42042 4.76651 6.61795L12.5808 13.2715C12.8225 13.4772 13.1777 13.4772 13.4195 13.2715L21.2337 6.61795C21.4657 6.42042 21.7604 6.31193 22.065 6.31193C22.7733 6.31193 23.3474 6.88604 23.3474 7.5943V7.68696Z" fill="white"/>
</svg>
